<?xml version="1.0" encoding="utf-8"?>
<!-- Svg Vector Icons : http://www.onlinewebfonts.com/icon -->
<!DOCTYPE svg PUBLIC "-//W3C//DTD SVG 1.1//EN" "http://www.w3.org/Graphics/SVG/1.1/DTD/svg11.dtd">
<svg version="1.1" xmlns="http://www.w3.org/2000/svg" xmlns:xlink="http://www.w3.org/1999/xlink" x="0px" y="0px" viewBox="0 0 1000 1000" enable-background="new 0 0 1000 1000" xml:space="preserve">
<metadata> Svg Vector Icons : http://www.onlinewebfonts.com/icon </metadata>
<g><path d="M925.8,873.9l-59.8,7.7v60.2H745.4v-60.2H253.5v60.2H132.9v-60.2H74.2C38.7,881.6,10,853,10,817.7V272.4c0-35.3,28.7-63.9,64.2-63.9h262.3c0,0,14.2-27.8,40.1-45.6l-82.5-82.1l22.7-22.6l89,88.5c17-7.2,36.5-12.4,59.1-12.4c24,0,44.3,5.9,61.7,13.8l90.4-90l22.7,22.6l-84.5,84c23.5,17.3,36,43.7,36,43.7h334.5c35.5,0,64.3,28.6,64.3,63.9v545.3C990,853,961.3,873.9,925.8,873.9z M744.8,301.5c0-17.6-14.4-31.9-32.1-31.9H103.3c-17.7,0-32.1,14.3-32.1,31.9v424c0,17.6,14.4,31.9,32.1,31.9h611.4c17.7,0,32.1-14.3,32.1-31.9L744.8,301.5z M804.8,697.2h123.7v-59H804.8V697.2z M804.8,576.1h123.7v-60.9H804.8V576.1z M866,330.7c-34.7,0-62.9,28.1-62.9,62.6c0,34.5,28.2,62.6,62.9,62.6c34.7,0,62.9-28,62.9-62.6C928.9,358.7,900.8,330.7,866,330.7z"/></g>
</svg>